# xmcd CD database file
#
# Track frame offsets:
#	150
#	17579
#	32874
#	50310
#	65011
#	81534
#	97942
#	117642
#	134277
#	146921
#	158749
#
# Disc length: 2330 seconds
#
# Revision: 2
# Processed by: cddbd v1.5.2PL0 Copyright (c) Steve Scherf et al.
# Submitted via: CDex 1.51
#
DISCID=9a09180b
DTITLE=Adriano e Anderson - Nossa História
DYEAR=1900
DGENRE=Country
TTITLE0=Nas ruas da cidae
TTITLE1=Adeus pra nunca mais
TTITLE2=Goianeiro
TTITLE3=Pompeano
TTITLE4=Voce nao sabe amar
TTITLE5=Amante sem pudor
TTITLE6=Sem voce nao sei viver
TTITLE7=Agora e tarde
TTITLE8=Somos todos iguais
TTITLE9=Era homem
TTITLE10=Fã numero um
EXTD=
EXTT0=
EXTT1=
EXTT2=
EXTT3=
EXTT4=
EXTT5=
EXTT6=
EXTT7=
EXTT8=
EXTT9=
EXTT10=
PLAYORDER=
